<svg xmlns="http://www.w3.org/2000/svg" id="Line" height="512" viewBox="0 0 64 64" width="512"><g fill="rgb(0,0,0)"><path d="m17.083 32.7002h-5.32714a2.0026 2.0026 0 0 0 -2 2v2.14746a2.0026 2.0026 0 0 0 2 2h5.32714a2.0026 2.0026 0 0 0 2-2v-2.14746a2.0026 2.0026 0 0 0 -2-2zm0 4.14746h-5.32714l-.001-2.14746h5.32814z"></path><path d="m17.76074 40.94824h-6.68164a1 1 0 1 0 0 2h6.68164a1 1 0 0 0 0-2z"></path><path d="m52.24512 32.7002h-5.32712a2.0026 2.0026 0 0 0 -2 2v2.14746a2.0026 2.0026 0 0 0 2 2h5.32715a2.0026 2.0026 0 0 0 2-2v-2.14746a2.0026 2.0026 0 0 0 -2.00003-2zm0 4.14746h-5.32712v-2.14746h5.32715z"></path><path d="m52.92188 40.94824h-6.68165a1 1 0 0 0 0 2h6.68165a1 1 0 0 0 0-2z"></path><path d="m41.95215 37.09277a2.98581 2.98581 0 0 0 -2.9209-2.31933h-14.06152a2.986 2.986 0 0 0 -2.9209 2.31836l-.77149 3.30371a2.99955 2.99955 0 0 0 2.9209 3.68262h15.60449a2.99955 2.99955 0 0 0 2.9209-3.68262zm-1.36621 4.60743a.99607.99607 0 0 1 -.78321.37793h-15.60449a.99952.99952 0 0 1 -.97363-1.22754l.77148-3.30469a.99586.99586 0 0 1 .97364-.77246h14.06152a.99568.99568 0 0 1 .97363.77344l.77149 3.30371a.99964.99964 0 0 1 -.19043.84961z"></path><path d="m58 20.624h-3.41211a2.00643 2.00643 0 0 0 -1.71289.96875l-.35889.5965-4.55322-8.20782a3.4897 3.4897 0 0 0 -3.0498-1.7959h-25.8252a3.48969 3.48969 0 0 0 -3.0498 1.7959l-4.55353 8.20837-.35858-.59607a2.008 2.008 0 0 0 -1.71387-.96973h-3.41211a2.0026 2.0026 0 0 0 -2 2v2.14356a2.0026 2.0026 0 0 0 2 2h1.57l-.611.59375a4.02439 4.02439 0 0 0 -1.21191 2.86816l-.0049 18.8301a2.76427 2.76427 0 0 0 2.7666 2.75488h5.22559a2.76427 2.76427 0 0 0 2.7666-2.75488v-1.56378c4.70288.34466 10.39972.66046 15.499.66046s10.7962-.3158 15.499-.6604v1.56372a2.76428 2.76428 0 0 0 2.76661 2.75488h5.22558a2.76427 2.76427 0 0 0 2.7666-2.75488v-3.43357c0-.0069-.0039-15.39649-.0039-15.39649a4.0244 4.0244 0 0 0 -1.21187-2.86818l-.611-.59375h1.569a2.0026 2.0026 0 0 0 2-2v-2.14358a2.0026 2.0026 0 0 0 -2-2zm-40.21387-5.67185a1.49094 1.49094 0 0 1 1.30176-.7666h25.8252a1.49091 1.49091 0 0 1 1.30175.7666l4.86036 8.76172a143.91875 143.91875 0 0 1 -19.0752 1.05957 143.91221 143.91221 0 0 1 -19.07422-1.05957zm-11.78613 9.81543v-2.14358h3.41211l.89362 1.48511-.67762.65845zm8.501 24.292a.75311.75311 0 0 1 -.7666.75488h-5.22561a.76172.76172 0 0 1 -.7666-.75488v-2.31977c1.3244.13281 3.74933.36493 6.75879.60351zm17.499-2.90333c-5.452 0-11.59741-.36542-16.4527-.73773-.01623-.0008-6.43182-.54981-7.80023-.68805v-14.501a2.0109 2.0109 0 0 1 .60645-1.43457l3.33483-3.2406a133.83146 133.83146 0 0 0 20.31165 1.21914 133.83991 133.83991 0 0 0 20.31262-1.21912l3.33484 3.2406a2.01095 2.01095 0 0 1 .60645 1.43457v14.501c-1.36847.13824-4.20978.412-7.73413.68292-.00733-.0002-11.06778.74284-16.51978.74284zm24.25781 2.90332a.76172.76172 0 0 1 -.7666.75488h-5.22558a.75311.75311 0 0 1 -.76661-.75488v-1.71619c3.00922-.23858 5.434-.47052 6.75879-.60345zm1.74219-24.29199h-3.62714l-.67822-.659.89325-1.48456h3.41211z"></path></g></svg>