<svg xmlns="http://www.w3.org/2000/svg" viewBox="0 0 128 128" width="512" height="512"><g id="Layer_2" data-name="Layer 2"><path d="M105.788,62.52H92.5V55h4.2a9.761,9.761,0,0,0,9.75-9.75V14.417H107.5a4.756,4.756,0,0,0,4.75-4.75V4.75A4.756,4.756,0,0,0,107.5,0h-87a4.756,4.756,0,0,0-4.75,4.75V9.667a4.756,4.756,0,0,0,4.75,4.75h1.045V45.248A9.761,9.761,0,0,0,31.3,55h4.2V62.52H22.212a7.209,7.209,0,0,0,0,14.417H26.55V92.766A16.762,16.762,0,0,0,43,109.5a50.632,50.632,0,0,0-2.847,16.749,1.75,1.75,0,0,0,1.75,1.75H86.094a1.75,1.75,0,0,0,1.75-1.75A50.636,50.636,0,0,0,85,109.5,16.762,16.762,0,0,0,101.45,92.766V76.937h4.338a7.209,7.209,0,0,0,0-14.417ZM19.25,9.667V4.75A1.252,1.252,0,0,1,20.5,3.5h87a1.252,1.252,0,0,1,1.25,1.25V9.667a1.252,1.252,0,0,1-1.25,1.25h-87A1.252,1.252,0,0,1,19.25,9.667ZM31.3,51.5a6.257,6.257,0,0,1-6.25-6.25V14.417h77.91V45.248a6.257,6.257,0,0,1-6.25,6.25H92.5V49.425a28.5,28.5,0,0,0-57,0V51.5ZM39,49.425a25,25,0,0,1,50,0v13.1H82.5v-13.1a18.5,18.5,0,0,0-37,0v13.1H39ZM49,62.25V49.425a15,15,0,0,1,30,0V62.25ZM43.688,124.5a47.109,47.109,0,0,1,2.654-13.951l.364-1.033H81.294l.364,1.032A47.122,47.122,0,0,1,84.312,124.5ZM97.95,92.766a13.265,13.265,0,0,1-13.25,13.25H43.3a13.265,13.265,0,0,1-13.25-13.25V76.937h67.9Zm7.838-19.329H22.212a3.709,3.709,0,0,1,0-7.417h83.576a3.709,3.709,0,0,1,0,7.417Z"></path><path d="M88.492,24.425h6.2a1.75,1.75,0,0,0,0-3.5h-6.2a1.75,1.75,0,0,0,0,3.5Z"></path></g></svg>